<svg width="150" height="150" viewBox="0 0 150 150" fill="none" xmlns="http://www.w3.org/2000/svg">
<rect width="150" height="150" fill="#D33A2C"/>
<path d="M87.5911 101.589C87.0867 103.585 86.5366 105.461 85.9399 107.19C82.0442 106.834 78.0213 106.647 73.9581 106.647C70.064 106.647 66.25 106.812 62.5633 107.127C61.9741 105.415 61.4306 103.561 60.9338 101.589H57.9193C58.4105 103.622 58.9593 105.575 59.5662 107.418C54.3717 107.967 49.2276 108.928 44.1815 110.295C41.2525 107.73 38.6486 104.806 36.4294 101.589H32.875C37.3061 108.66 43.4219 114.481 50.6562 118.514C57.8905 122.547 66.0097 124.661 74.2621 124.661C82.5146 124.661 90.6337 122.547 97.868 118.514C105.102 114.481 111.218 108.66 115.649 101.589H112.097C109.84 104.861 107.184 107.829 104.193 110.423C99.1893 109.046 94.0872 108.068 88.9334 107.499C89.5506 105.632 90.1079 103.652 90.6069 101.589L87.5911 101.589ZM47.0665 112.621C51.5222 111.551 56.0431 110.783 60.5992 110.322C62.4113 115.015 64.7894 118.877 67.1422 121.304C59.8748 120.04 52.9995 117.067 47.0665 112.621V112.621ZM74.263 121.889C70.5366 121.889 66.6849 117.438 63.6556 110.041C67.0229 109.773 70.4778 109.631 73.9584 109.631C77.6492 109.631 81.3018 109.79 84.8496 110.089C81.8237 117.457 77.9814 121.889 74.263 121.889H74.263ZM101.307 112.735C95.4077 117.117 88.5881 120.05 81.3841 121.304C83.7264 118.887 86.0958 115.048 87.9038 110.385C92.4186 110.861 96.8965 111.646 101.307 112.735H101.307Z" fill="white"/>
<path d="M84.9109 66.1034V53.1186H74.6436C71.4908 52.6706 68.3145 52.4148 65.1316 52.3525C53.303 52.3525 45.1992 56.7499 45.1992 66.4622C45.1992 85.5809 72.3291 77.2463 72.3291 84.4027C72.3291 86.6022 70.1635 87.8291 64.8292 87.8291C60.8025 87.8291 57.2798 86.9591 55.7706 86.1422V83.3806H45.502V96.3644H55.7706C59.1083 96.8157 62.4688 97.0717 65.8355 97.1312C81.3886 97.1312 86.5722 90.6914 86.5722 82.8193C86.5722 63.8042 59.1928 72.5432 59.1928 64.9284C59.1928 63.0872 61.0549 61.6564 65.8355 61.6564C69.5609 61.6564 73.1335 62.5272 74.6438 63.3428V66.1034H84.9109Z" fill="white"/>
<path d="M15 85.7189V96.4535H42.4294V85.7189H35.5341V63.9416H42.4294V53.207H15V63.9416H21.8938V85.7189H15Z" fill="white"/>
<path d="M112.096 48.0714H115.649C111.218 41.0009 105.102 35.1798 97.8679 31.147C90.6336 27.1142 82.5145 25 74.2621 25C66.0098 25 57.8907 27.1142 50.6564 31.147C43.4221 35.1798 37.3063 41.0009 32.875 48.0714H36.4282C38.6859 44.801 41.341 41.833 44.3305 39.2379C49.3344 40.6157 54.4368 41.5935 59.5909 42.1624C58.9734 44.031 58.4168 46.0081 57.9181 48.0713H60.9336C61.4381 46.0765 61.9874 44.1994 62.5851 42.4702C66.4809 42.8263 70.5042 43.0138 74.5672 43.0138C78.4617 43.0138 82.274 42.8486 85.9619 42.5338C86.5499 44.2451 87.0941 46.101 87.5902 48.0715H90.6061C90.114 46.0386 89.5649 44.0858 88.9597 42.2429C94.1533 41.694 99.2965 40.7323 104.342 39.3665C107.272 41.9301 109.877 44.8542 112.096 48.0714V48.0714ZM60.6215 39.2778C56.107 38.7998 51.6291 38.0148 47.2181 36.9278C53.1168 32.5443 59.9364 29.6105 67.1405 28.3571C64.7984 30.7729 62.4277 34.6148 60.6215 39.2778H60.6215ZM74.5672 40.0297C70.8771 40.0297 67.223 39.8715 63.6747 39.5726C66.7008 32.2053 70.5422 27.7717 74.262 27.7717C77.9887 27.7717 81.8402 32.2241 84.8688 39.6204C81.5029 39.8885 78.0469 40.0288 74.5672 40.0297H74.5672ZM87.9263 39.3379C86.113 34.6447 83.7356 30.7832 81.3824 28.3571C88.6497 29.6205 95.5249 32.5943 101.458 37.0404C97.0025 38.1108 92.482 38.8783 87.9263 39.3379H87.9263Z" fill="white"/>
<path d="M111.698 52.3525C98.1071 52.3525 88.3936 60.377 88.3936 74.742C88.3936 89.107 98.1071 97.1315 111.698 97.1315C125.286 97.1315 135 89.107 135 74.742C135 60.377 125.286 52.3525 111.698 52.3525ZM111.698 86.959C106.311 86.959 102.889 83.484 102.889 74.742C102.889 66.0022 106.311 62.5272 111.698 62.5272C117.082 62.5272 120.505 66.0022 120.505 74.742C120.505 83.4838 117.082 86.9588 111.698 86.9588V86.959Z" fill="white"/>
</svg>
